<?xml version="1.0" ?><!DOCTYPE svg  PUBLIC '-//W3C//DTD SVG 1.0//EN'  'http://www.w3.org/TR/2001/REC-SVG-20010904/DTD/svg10.dtd'><svg height="32" style="overflow:visible;enable-background:new 0 0 22 32" viewBox="0 0 22 32" width="22" xml:space="preserve" xmlns="http://www.w3.org/2000/svg" xmlns:xlink="http://www.w3.org/1999/xlink"><g><g id="Paint_Brush_1_"><g id="Paint_Brush"><rect height="13" id="Brush" style="fill:#EDD8B4;" width="20" x="1"/><rect height="0.5" id="Brush_Shadow" style="fill:#CCB79E;" width="20" x="1" y="12.5"/><g id="Paint"><polygon id="Paint_1_" points="15,0 1,0 1,14 " style="fill:#0BA55F;"/><path d="M10,6.5C10,6.8,10.2,7,10.5,7         S11,6.8,11,6.5V4l-1,1V6.5z" id="Paint_Leak__x0028_left_x0029_" style="fill:#0BA55F;"/><path d="M13,2v5.5C13,7.8,13.2,8,13.5,8         S14,7.8,14,7.5V1L13,2z" id="Paint_Leak__x0028_right_x0029_" style="fill:#0BA55F;"/><polygon id="Paint_Shadow" points="1,12.5 1,13 2,13 2.5,12.5 " style="fill:#057545;"/></g><rect height="3" id="Holder" style="fill:#D72828;" width="22" y="13"/><path d="M1,15v5c0,1.7,1.3,3,3,3h5v7c0,1.1,0.9,2,2,2s2-0.9,2-2v-7h5        c1.7,0,3-1.3,3-3v-5H1z M11,31c-0.6,0-1-0.4-1-1s0.4-1,1-1s1,0.4,1,1S11.6,31,11,31z" id="Handle" style="fill:#D72828;"/><rect height="0.5" id="Brush_Holder_shadow" style="fill:#BF1C1C;" width="20" x="1" y="16"/><polygon id="Handle_shadow" points="13,27 9,23 13,23 " style="fill:#BF1C1C;"/></g></g></g></svg>