<?xml version="1.0" ?><!DOCTYPE svg  PUBLIC '-//W3C//DTD SVG 1.0//EN'  'http://www.w3.org/TR/2001/REC-SVG-20010904/DTD/svg10.dtd'><svg height="32" style="overflow:visible;enable-background:new 0 0 32 32" viewBox="0 0 32 32" width="32" xml:space="preserve" xmlns="http://www.w3.org/2000/svg" xmlns:xlink="http://www.w3.org/1999/xlink"><g><g id="Lemon_1_"><g id="Lemon"><path d="M16,0C7.2,0,0,7.2,0,16c0,8.8,7.2,16,16,16        c8.8,0,16-7.2,16-16C32,7.2,24.9,0,16,0z M16,29.9C8.3,29.9,2.1,23.7,2.1,16C2.1,8.3,8.3,2.1,16,2.1c7.7,0,13.9,6.2,13.9,13.9        C29.9,23.7,23.7,29.9,16,29.9z" id="Lemon__x0028_outside_x0029_" style="fill:#FEC327;"/><g id="inner_part"><path d="M16.7,16.7l4.4,10.6c2.9-1.3,5-3.5,6.2-6.2L16.7,16.7z" id="slices_7_" style="fill:#FED049;"/><path d="M27.6,11.6L17,16l10.6,4.4C28.7,17.5,28.6,14.4,27.6,11.6z" id="slices_6_" style="fill:#FED049;"/><path d="M16.7,15.3l10.6-4.4c-1.3-2.9-3.5-5-6.2-6.2L16.7,15.3z" id="slices_5_" style="fill:#FED049;"/><path d="M16,15l4.4-10.6c-2.9-1.1-6-1-8.8,0L16,15z" id="slices_4_" style="fill:#FED049;"/><path d="M15.3,15.3L10.9,4.7c-2.8,1.3-5,3.5-6.2,6.2L15.3,15.3z" id="slices_3_" style="fill:#FED049;"/><path d="M16,17l-4.4,10.6c2.9,1.1,6,1,8.8,0L16,17z" id="slices_2_" style="fill:#FED049;"/><path d="M4.4,11.6c-1.1,2.9-1,6,0,8.7L15,16L4.4,11.6z" id="slices_1_" style="fill:#FED049;"/><path d="M4.7,21.1c1.3,2.8,3.5,5,6.2,6.2l4.4-10.5L4.7,21.1z" id="slices" style="fill:#FED049;"/></g></g></g></g></svg>