<?xml version="1.0" encoding="UTF-8" standalone="no"?>
<!-- Created with Inkscape (http://www.inkscape.org/) -->
<svg
   xmlns:svg="http://www.w3.org/2000/svg"
   xmlns="http://www.w3.org/2000/svg"
   version="1.0"
   width="500"
   height="500"
   viewBox="0 0 40.697 40.688"
   id="svg4595"
   xml:space="preserve"><defs
   id="defs4614" />
	
		<g
   id="Ebene_1">
		</g>
		<g
   id="Ebene_2">
			<g
   id="g4601">
				<g
   id="g4603">
					<g
   id="g4605">
						<rect
   width="40.696999"
   height="40.688"
   x="0"
   y="0"
   style="fill:none"
   id="rect4607" /> 
						<path
   d="M 40.697,34.276 C 40.697,37.818 37.824,40.687 34.279,40.687 L 6.414,40.687 C 2.873,40.688 0,37.818 0,34.276 L 0,6.414 C 0,2.864 2.873,0 6.414,0 L 34.279,0 C 37.824,0 40.697,2.864 40.697,6.414 L 40.697,34.276 L 40.697,34.276 z "
   style="fill:#1e419a"
   id="path4609" />
					</g>
				</g>
				<path
   d="M 26.594,37.578 L 14.996,37.578 L 14.996,35.328 C 15.699,35.328 16.006,35.328 15.919,35.328 C 17.018,35.328 17.633,34.817 17.765,33.795 C 17.765,33.066 17.79,31.952 17.84,30.456 C 17.989,27.864 18.064,26.185 18.064,25.419 C 18.064,22.208 17.956,19.452 17.738,17.152 C 17.651,16.386 17.368,15.893 16.889,15.674 C 16.627,15.602 15.997,15.565 14.996,15.565 L 14.996,13.265 L 24.017,13.265 C 24.017,15.71 23.976,17.901 23.899,19.834 C 23.7,23.594 23.6,25.638 23.6,25.966 C 23.6,29.47 23.731,32.079 23.991,33.794 C 24.077,34.524 24.338,34.982 24.772,35.163 C 25.031,35.272 25.639,35.327 26.593,35.327 L 26.593,37.578 L 26.594,37.578 z M 24.499,6.676 C 24.499,7.657 24.128,8.512 23.387,9.238 C 22.646,9.964 21.73,10.328 20.641,10.328 C 19.507,10.328 18.57,9.965 17.829,9.238 C 17.088,8.511 16.717,7.657 16.717,6.676 C 16.717,5.732 17.088,4.896 17.829,4.169 C 18.569,3.442 19.507,3.078 20.641,3.078 C 21.73,3.078 22.646,3.442 23.387,4.169 C 24.128,4.896 24.499,5.731 24.499,6.676 z "
   style="fill:#ffffff"
   id="path4611" />
			</g>
		</g>
	</svg>